<?xml version="1.0" encoding="utf-8"?>
<!-- Generator: Adobe Illustrator 25.4.1, SVG Export Plug-In . SVG Version: 6.00 Build 0)  -->
<svg version="1.1" id="Layer_1" xmlns="http://www.w3.org/2000/svg" xmlns:xlink="http://www.w3.org/1999/xlink" x="0px" y="0px"
	 viewBox="0 0 24 24" style="enable-background:new 0 0 24 24;" xml:space="preserve">
<style type="text/css">
	.st0{fill-rule:evenodd;clip-rule:evenodd;fill:#0056B4;}
	.st1{fill-rule:evenodd;clip-rule:evenodd;fill:#FFFFFF;}
</style>
<path class="st0" d="M12,0C5.4,0,0,5.4,0,12c0,3.2,1.2,6.2,3.5,8.4C5.7,22.7,8.8,24,12,24c3.2,0,6.3-1.3,8.5-3.6
	c2.2-2.3,3.5-5.3,3.5-8.4C24,5.4,18.6,0,12,0z"/>
<path class="st0" d="M4.7,20.2c1-0.6,2.5-1.1,4-1.6c0.5-0.2,1-0.4,1.5-0.6c0.2-0.1,0.3-0.3,0.3-0.5V15c0-0.2-0.1-0.4-0.3-0.5
	c0,0-1.2-0.5-1.2-2.5c0-0.3-0.2-0.5-0.5-0.5c0,0-0.1-0.2-0.1-0.5s0.1-0.5,0.1-0.5C8.8,10.5,9,10.3,9,10c0-0.1,0-0.3-0.1-0.5
	C8.7,8.9,8.3,7.5,8.7,7.1C8.7,7,8.9,6.9,9.4,7C9.7,7,9.9,6.9,10,6.6c0.2-0.6,1.3-1.1,2.8-1.1s2.6,0.5,2.8,1.1
	c0.2,0.9-0.2,2.2-0.4,2.8C15,9.7,15,9.9,15,10c0,0.3,0.2,0.5,0.5,0.5c0,0,0.1,0.2,0.1,0.5s-0.1,0.5-0.1,0.5c-0.3,0-0.5,0.2-0.5,0.5
	c0,2.1-1.1,2.5-1.2,2.5c-0.2,0.1-0.3,0.3-0.3,0.5v2.5c0,0.2,0.1,0.4,0.3,0.5c0.5,0.2,1.1,0.4,1.6,0.6c1.5,0.5,2.9,1.1,3.9,1.6
	C17.3,22,14.8,23,12,23C9.3,23,6.7,22,4.7,20.2z"/>
<path class="st1" d="M20.1,19.4c-1-0.6-2.6-1.2-4.3-1.8c-0.4-0.2-0.8-0.3-1.3-0.5v-1.8c0.5-0.3,1.4-1.1,1.5-2.9
	c0.4-0.2,0.6-0.7,0.6-1.4c0-0.6-0.2-1-0.5-1.3c0.2-0.8,0.7-2.1,0.4-3.3c-0.3-1.4-2.2-1.9-3.7-1.9c-1.3,0-3,0.4-3.6,1.5
	c-0.7,0-1.1,0.3-1.3,0.5c-0.6,0.8-0.2,2.4,0,3.2C7.6,9.9,7.4,10.4,7.4,11c0,0.6,0.2,1.1,0.6,1.4c0.1,1.8,1,2.6,1.5,2.9v1.8
	c-0.4,0.1-0.8,0.3-1.2,0.4c-1.6,0.6-3.3,1.2-4.4,1.9C2,17.4,1,14.8,1,12C1,5.9,5.9,1,12,1s11,4.9,11,11C23,14.8,22,17.4,20.1,19.4z"
	/>
</svg>
