<?xml version="1.0" encoding="UTF-8"?>
<svg width="180px" height="107px" viewBox="0 0 180 107" version="1.1" xmlns="http://www.w3.org/2000/svg" xmlns:xlink="http://www.w3.org/1999/xlink">
    <!-- Generator: Sketch 61.2 (89653) - https://sketch.com -->
    <title>Mine bestillinger</title>
    <desc>Created with Sketch.</desc>
    <g id="Bestille-tolketjeneste" stroke="none" stroke-width="1" fill="none" fill-rule="evenodd">
        <g id="Lenkepaneler-Copy-19" transform="translate(-621.000000, -421.000000)">
            <g id="Mine-bestillinger" transform="translate(621.000000, 421.000000)">
                <g id="Group-4">
                    <path d="M123.408168,91 L56.5918316,91 C53.7797324,91 51.5,88.6928155 51.5,85.8468534 L51.5,-7.84685337 C51.5,-10.6913671 53.7797324,-13 56.5918316,-13 L123.408168,-13 C126.220268,-13 128.5,-10.6913671 128.5,-7.84685337 L128.5,85.8468534 C128.5,88.6928155 126.220268,91 123.408168,91" id="Fill-13" fill="#ABB2BA" transform="translate(90.000000, 39.000000) rotate(-90.000000) translate(-90.000000, -39.000000) "></path>
                    <path d="M138.5,38.9992369 C138.5,42.3124762 135.588707,45 131.999167,45 C128.409627,45 125.5,42.3124762 125.5,38.9992369 C125.5,35.6859977 128.409627,33 131.999167,33 C135.588707,33 138.5,35.6859977 138.5,38.9992369" id="Fill-15" fill="#627282" transform="translate(132.000000, 39.000000) rotate(-90.000000) translate(-132.000000, -39.000000) "></path>
                    <g id="Group-Copy-2" transform="translate(130.000000, 42.500000)">
                        <g id="Group-Copy" transform="translate(25.000000, 32.000000) scale(-1, 1) translate(-25.000000, -32.000000) ">
                            <path d="M38.1071429,-4.26325641e-14 L38.1071429,14.2055294 C38.1071429,14.2055294 38.2544143,15.0742128 38.4506272,16.327876 L42.5629635,10.6674934 C43.8266212,8.92886824 46.2679557,8.53861756 48.0136271,9.79623602 L48.0136271,9.79623602 L48.3836052,10.0607249 C50.1305794,11.3183433 50.522704,13.7480103 49.2590464,15.4866355 L49.2590464,15.4866355 L38.0644451,30.8943877 C37.8634982,31.4299197 37.6516657,31.9508441 37.4372422,32.449838 C36.4119594,34.8358174 32.268108,39.6077761 31.9730722,41.1344919 C31.6780364,42.6625037 31.3830006,44 31.3830006,44 L31.3830006,44 L13,37.6961414 L19.0489016,17.4703976 C19.1436869,17.1528719 19.3105624,16.8625626 19.538848,16.6176141 C21.6628388,14.3443888 33.5109964,2.32765832 35.518842,0.292901325 C35.7044075,0.103681885 35.9593932,-4.26325641e-14 36.2277289,-4.26325641e-14 L36.2277289,-4.26325641e-14 L38.1071429,-4.26325641e-14 Z" id="Combined-Shape" fill="#E7E6E2"></path>
                            <g id="Group-2" transform="translate(0.000000, 37.000000)">
                                <polygon id="Fill-18" fill="#BDD1D0" points="9.50888956 1.28571429 32.6923077 9.50638722 26.5363758 27 0 27"></polygon>
                                <polygon id="Fill-19" fill="#6E9DAA" points="9.18544025 0 34 8.31830962 31.3530213 15.4285714 6.53846154 7.11026181"></polygon>
                                <path d="M10.5366952,4.71474805 C10.7774545,4.04512784 11.5246758,3.69432363 12.204658,3.9310365 C12.8857247,4.1666831 13.2425255,4.90134603 13.0017663,5.57096624 C12.7620915,6.24058644 12.0148703,6.59139066 11.3338036,6.35467778 C10.6527369,6.11796491 10.295936,5.38330198 10.5366952,4.71474805" id="Fill-20" fill="#37363A"></path>
                            </g>
                        </g>
                    </g>
                    <rect id="Rectangle" fill="#F6F6F6" x="44" y="6.5" width="79" height="65"></rect>
                    <g id="Group-3" transform="translate(50.000000, 20.500000)" fill="#D8D8D8">
                        <rect id="Rectangle" x="0" y="0" width="68" height="2"></rect>
                        <rect id="Rectangle-Copy-8" x="0" y="7" width="68" height="2"></rect>
                        <rect id="Rectangle-Copy-9" x="0" y="14" width="68" height="2"></rect>
                        <rect id="Rectangle-Copy-10" x="0" y="21" width="68" height="2"></rect>
                        <rect id="Rectangle-Copy-11" x="0" y="28" width="68" height="2"></rect>
                        <rect id="Rectangle-Copy-12" x="0" y="35" width="68" height="2"></rect>
                    </g>
                    <g id="Group" transform="translate(0.000000, 42.500000)">
                        <path d="M38.1071429,-4.26325641e-14 L38.1071429,14.2055294 C38.1071429,14.2055294 38.2544143,15.0742128 38.4506272,16.327876 L42.5629635,10.6674934 C43.8266212,8.92886824 46.2679557,8.53861756 48.0136271,9.79623602 L48.0136271,9.79623602 L48.3836052,10.0607249 C50.1305794,11.3183433 50.522704,13.7480103 49.2590464,15.4866355 L49.2590464,15.4866355 L38.0644451,30.8943877 C37.8634982,31.4299197 37.6516657,31.9508441 37.4372422,32.449838 C36.4119594,34.8358174 32.268108,39.6077761 31.9730722,41.1344919 C31.6780364,42.6625037 31.3830006,44 31.3830006,44 L31.3830006,44 L13,37.6961414 L19.0489016,17.4703976 C19.1436869,17.1528719 19.3105624,16.8625626 19.538848,16.6176141 C21.6628388,14.3443888 33.5109964,2.32765832 35.518842,0.292901325 C35.7044075,0.103681885 35.9593932,-4.26325641e-14 36.2277289,-4.26325641e-14 L36.2277289,-4.26325641e-14 L38.1071429,-4.26325641e-14 Z" id="Combined-Shape" fill="#E7E6E2"></path>
                        <g id="Group-2" transform="translate(0.000000, 37.000000)">
                            <polygon id="Fill-18" fill="#BDD1D0" points="9.50888956 1.28571429 32.6923077 9.50638722 26.5363758 27 0 27"></polygon>
                            <polygon id="Fill-19" fill="#6E9DAA" points="9.18544025 0 34 8.31830962 31.3530213 15.4285714 6.53846154 7.11026181"></polygon>
                            <path d="M10.5366952,4.71474805 C10.7774545,4.04512784 11.5246758,3.69432363 12.204658,3.9310365 C12.8857247,4.1666831 13.2425255,4.90134603 13.0017663,5.57096624 C12.7620915,6.24058644 12.0148703,6.59139066 11.3338036,6.35467778 C10.6527369,6.11796491 10.295936,5.38330198 10.5366952,4.71474805" id="Fill-20" fill="#37363A"></path>
                        </g>
                    </g>
                </g>
            </g>
        </g>
    </g>
</svg>