<svg width="127" height="77" viewBox="0 0 127 77" fill="none" xmlns="http://www.w3.org/2000/svg">
<path fill-rule="evenodd" clip-rule="evenodd" d="M32.9356 77H4.06439C1.81869 77 0 75.1949 0 72.9676V17.0312C0 14.8051 1.81869 13 4.06439 13H32.9356C35.1813 13 37 14.8051 37 17.0312V72.9676C37 75.1949 35.1813 77 32.9356 77Z" fill="#A0A0A0"/>
<rect width="31.8966" height="51.2" transform="translate(2.55078 15.5605)" fill="white"/>
<rect x="3.82812" y="16.8398" width="29.3448" height="16.64" fill="#B5F1FF"/>
<path fill-rule="evenodd" clip-rule="evenodd" d="M5.10547 38.5996H31.8986V41.1596H5.10547V38.5996Z" fill="#F1F1F1"/>
<path fill-rule="evenodd" clip-rule="evenodd" d="M5.10547 45H31.8986V47.56H5.10547V45Z" fill="#F1F1F1"/>
<path fill-rule="evenodd" clip-rule="evenodd" d="M5.10547 51.4004H31.8986V53.9604H5.10547V51.4004Z" fill="#F1F1F1"/>
<path fill-rule="evenodd" clip-rule="evenodd" d="M21.6894 71.8803C21.6894 73.294 20.5476 74.4403 19.137 74.4403C17.729 74.4403 16.5859 73.294 16.5859 71.8803C16.5859 70.4666 17.729 69.3203 19.137 69.3203C20.5476 69.3203 21.6894 70.4666 21.6894 71.8803" fill="#6A6A6A"/>
<path d="M57.735 38.4596C53.3207 34.4425 50.9987 29.307 50.9987 23.5238C50.9987 10.7739 63.3265 0 77.9154 0C92.5042 0 104.832 10.7739 104.832 23.5238C104.832 36.4872 93.0641 47.4385 79.1356 47.4385C75.6257 47.4385 72.1839 46.7472 68.8965 45.3792L55.2156 50.5509C55.0075 50.6269 54.7957 50.6667 54.584 50.6667C54.0851 50.6667 53.5971 50.4568 53.2489 50.0695C52.7537 49.5158 52.6496 48.7124 52.9762 48.0465L57.735 38.4596Z" fill="#ABB2B9"/>
<path d="M121.056 65.3182C124.951 61.8032 127 57.3097 127 52.2493C127 41.0932 116.123 31.666 103.25 31.666C90.3775 31.666 79.5 41.0932 79.5 52.2493C79.5 63.5923 89.8835 73.1747 102.173 73.1747C105.27 73.1747 108.307 72.5698 111.208 71.3728L123.279 75.898C123.463 75.9645 123.65 75.9994 123.837 75.9994C124.277 75.9994 124.707 75.8157 125.015 75.4769C125.452 74.9924 125.543 74.2894 125.255 73.7067L121.056 65.3182Z" fill="#679CB2"/>
</svg>
