<?xml version="1.0" encoding="UTF-8"?>
<svg width="120px" height="106px" viewBox="0 0 120 106" version="1.1" xmlns="http://www.w3.org/2000/svg" xmlns:xlink="http://www.w3.org/1999/xlink">
    <!-- Generator: Sketch 61.2 (89653) - https://sketch.com -->
    <title>gjenstander/ ovenfra/ hånd/ tastatur</title>
    <desc>Created with Sketch.</desc>
    <g id="Bestille-tolketjeneste" stroke="none" stroke-width="1" fill="none" fill-rule="evenodd">
        <g id="Lenkepaneler-Copy-19" transform="translate(-372.000000, -422.000000)">
            <g id="gjenstander/-ovenfra/-hånd/-tastatur" transform="translate(366.000000, 406.000000)">
                <g id="Group-3" transform="translate(6.000000, 16.745098)">
                    <g id="Group-2">
                        <path d="M9.74968384,0 L110.251521,0 C115.636429,0 120,4.20214923 120,9.3765697 L120,57.6014597 C120,62.7829684 115.636429,66.9803922 110.251521,66.9803922 L9.74968384,66.9803922 C4.36477508,66.9803922 0,62.7829684 0,57.6014597 L0,9.3765697 C0,4.20214923 4.36477508,0 9.74968384,0" id="Fill-144" fill="#595B5C"></path>
                        <path d="M8.74637162,13.1568627 L12.8547999,13.1568627 C13.7076473,13.1568627 14.4,13.9222802 14.4,14.8709299 L14.4,17.4192891 C14.4,18.3692384 13.7076473,19.1372549 12.8547999,19.1372549 L8.74637162,19.1372549 C7.89235275,19.1372549 7.2,18.3692384 7.2,17.4192891 L7.2,14.8709299 C7.2,13.9222802 7.89235275,13.1568627 8.74637162,13.1568627" id="Fill-145" fill="#38363A"></path>
                        <path d="M8.74637162,22.7254902 L12.8547999,22.7254902 C13.7076473,22.7254902 14.4,23.4909076 14.4,24.4395574 L14.4,26.9879166 C14.4,27.9378659 13.7076473,28.7058824 12.8547999,28.7058824 L8.74637162,28.7058824 C7.89235275,28.7058824 7.2,27.9378659 7.2,26.9879166 L7.2,24.4395574 C7.2,23.4909076 7.89235275,22.7254902 8.74637162,22.7254902" id="Fill-145-Copy-9" fill="#38363A"></path>
                        <path d="M8.74637162,32.2941176 L12.8547999,32.2941176 C13.7076473,32.2941176 14.4,33.0595351 14.4,34.0081848 L14.4,36.556544 C14.4,37.5064933 13.7076473,38.2745098 12.8547999,38.2745098 L8.74637162,38.2745098 C7.89235275,38.2745098 7.2,37.5064933 7.2,36.556544 L7.2,34.0081848 C7.2,33.0595351 7.89235275,32.2941176 8.74637162,32.2941176" id="Fill-145-Copy-20" fill="#38363A"></path>
                        <path d="M8.74637162,41.8627451 L12.8547999,41.8627451 C13.7076473,41.8627451 14.4,42.6281625 14.4,43.5768123 L14.4,46.1251715 C14.4,47.0751208 13.7076473,47.8431373 12.8547999,47.8431373 L8.74637162,47.8431373 C7.89235275,47.8431373 7.2,47.0751208 7.2,46.1251715 L7.2,43.5768123 C7.2,42.6281625 7.89235275,41.8627451 8.74637162,41.8627451" id="Fill-145-Copy-31" fill="#38363A"></path>
                        <path d="M8.74637162,51.4313725 L12.8547999,51.4313725 C13.7076473,51.4313725 14.4,52.19679 14.4,53.1454397 L14.4,55.6937989 C14.4,56.6437482 13.7076473,57.4117647 12.8547999,57.4117647 L8.74637162,57.4117647 C7.89235275,57.4117647 7.2,56.6437482 7.2,55.6937989 L7.2,53.1454397 C7.2,52.19679 7.89235275,51.4313725 8.74637162,51.4313725" id="Fill-145-Copy-42" fill="#38363A"></path>
                        <path d="M18.3463716,13.1568627 L22.4547999,13.1568627 C23.3076473,13.1568627 24,13.9222802 24,14.8709299 L24,17.4192891 C24,18.3692384 23.3076473,19.1372549 22.4547999,19.1372549 L18.3463716,19.1372549 C17.4923527,19.1372549 16.8,18.3692384 16.8,17.4192891 L16.8,14.8709299 C16.8,13.9222802 17.4923527,13.1568627 18.3463716,13.1568627" id="Fill-145-Copy" fill="#38363A"></path>
                        <path d="M18.3463716,22.7254902 L22.4547999,22.7254902 C23.3076473,22.7254902 24,23.4909076 24,24.4395574 L24,26.9879166 C24,27.9378659 23.3076473,28.7058824 22.4547999,28.7058824 L18.3463716,28.7058824 C17.4923527,28.7058824 16.8,27.9378659 16.8,26.9879166 L16.8,24.4395574 C16.8,23.4909076 17.4923527,22.7254902 18.3463716,22.7254902" id="Fill-145-Copy-10" fill="#38363A"></path>
                        <path d="M18.3463716,32.2941176 L22.4547999,32.2941176 C23.3076473,32.2941176 24,33.0595351 24,34.0081848 L24,36.556544 C24,37.5064933 23.3076473,38.2745098 22.4547999,38.2745098 L18.3463716,38.2745098 C17.4923527,38.2745098 16.8,37.5064933 16.8,36.556544 L16.8,34.0081848 C16.8,33.0595351 17.4923527,32.2941176 18.3463716,32.2941176" id="Fill-145-Copy-21" fill="#38363A"></path>
                        <path d="M18.3463716,41.8627451 L22.4547999,41.8627451 C23.3076473,41.8627451 24,42.6281625 24,43.5768123 L24,46.1251715 C24,47.0751208 23.3076473,47.8431373 22.4547999,47.8431373 L18.3463716,47.8431373 C17.4923527,47.8431373 16.8,47.0751208 16.8,46.1251715 L16.8,43.5768123 C16.8,42.6281625 17.4923527,41.8627451 18.3463716,41.8627451" id="Fill-145-Copy-32" fill="#38363A"></path>
                        <path d="M18.3463716,51.4313725 L22.4547999,51.4313725 C23.3076473,51.4313725 24,52.19679 24,53.1454397 L24,55.6937989 C24,56.6437482 23.3076473,57.4117647 22.4547999,57.4117647 L18.3463716,57.4117647 C17.4923527,57.4117647 16.8,56.6437482 16.8,55.6937989 L16.8,53.1454397 C16.8,52.19679 17.4923527,51.4313725 18.3463716,51.4313725" id="Fill-145-Copy-43" fill="#38363A"></path>
                        <path d="M27.9463716,13.1568627 L32.0547999,13.1568627 C32.9076473,13.1568627 33.6,13.9222802 33.6,14.8709299 L33.6,17.4192891 C33.6,18.3692384 32.9076473,19.1372549 32.0547999,19.1372549 L27.9463716,19.1372549 C27.0923527,19.1372549 26.4,18.3692384 26.4,17.4192891 L26.4,14.8709299 C26.4,13.9222802 27.0923527,13.1568627 27.9463716,13.1568627" id="Fill-145-Copy-2" fill="#38363A"></path>
                        <path d="M27.9463716,22.7254902 L32.0547999,22.7254902 C32.9076473,22.7254902 33.6,23.4909076 33.6,24.4395574 L33.6,26.9879166 C33.6,27.9378659 32.9076473,28.7058824 32.0547999,28.7058824 L27.9463716,28.7058824 C27.0923527,28.7058824 26.4,27.9378659 26.4,26.9879166 L26.4,24.4395574 C26.4,23.4909076 27.0923527,22.7254902 27.9463716,22.7254902" id="Fill-145-Copy-11" fill="#38363A"></path>
                        <path d="M27.9463716,32.2941176 L32.0547999,32.2941176 C32.9076473,32.2941176 33.6,33.0595351 33.6,34.0081848 L33.6,36.556544 C33.6,37.5064933 32.9076473,38.2745098 32.0547999,38.2745098 L27.9463716,38.2745098 C27.0923527,38.2745098 26.4,37.5064933 26.4,36.556544 L26.4,34.0081848 C26.4,33.0595351 27.0923527,32.2941176 27.9463716,32.2941176" id="Fill-145-Copy-22" fill="#38363A"></path>
                        <path d="M27.9463716,41.8627451 L32.0547999,41.8627451 C32.9076473,41.8627451 33.6,42.6281625 33.6,43.5768123 L33.6,46.1251715 C33.6,47.0751208 32.9076473,47.8431373 32.0547999,47.8431373 L27.9463716,47.8431373 C27.0923527,47.8431373 26.4,47.0751208 26.4,46.1251715 L26.4,43.5768123 C26.4,42.6281625 27.0923527,41.8627451 27.9463716,41.8627451" id="Fill-145-Copy-33" fill="#38363A"></path>
                        <path d="M27.9463716,51.4313725 L32.0547999,51.4313725 C32.9076473,51.4313725 33.6,52.19679 33.6,53.1454397 L33.6,55.6937989 C33.6,56.6437482 32.9076473,57.4117647 32.0547999,57.4117647 L27.9463716,57.4117647 C27.0923527,57.4117647 26.4,56.6437482 26.4,55.6937989 L26.4,53.1454397 C26.4,52.19679 27.0923527,51.4313725 27.9463716,51.4313725" id="Fill-145-Copy-44" fill="#38363A"></path>
                        <path d="M37.5463716,13.1568627 L41.6547999,13.1568627 C42.5076473,13.1568627 43.2,13.9222802 43.2,14.8709299 L43.2,17.4192891 C43.2,18.3692384 42.5076473,19.1372549 41.6547999,19.1372549 L37.5463716,19.1372549 C36.6923527,19.1372549 36,18.3692384 36,17.4192891 L36,14.8709299 C36,13.9222802 36.6923527,13.1568627 37.5463716,13.1568627" id="Fill-145-Copy-3" fill="#38363A"></path>
                        <path d="M37.5463716,22.7254902 L41.6547999,22.7254902 C42.5076473,22.7254902 43.2,23.4909076 43.2,24.4395574 L43.2,26.9879166 C43.2,27.9378659 42.5076473,28.7058824 41.6547999,28.7058824 L37.5463716,28.7058824 C36.6923527,28.7058824 36,27.9378659 36,26.9879166 L36,24.4395574 C36,23.4909076 36.6923527,22.7254902 37.5463716,22.7254902" id="Fill-145-Copy-12" fill="#38363A"></path>
                        <path d="M37.5463716,32.2941176 L41.6547999,32.2941176 C42.5076473,32.2941176 43.2,33.0595351 43.2,34.0081848 L43.2,36.556544 C43.2,37.5064933 42.5076473,38.2745098 41.6547999,38.2745098 L37.5463716,38.2745098 C36.6923527,38.2745098 36,37.5064933 36,36.556544 L36,34.0081848 C36,33.0595351 36.6923527,32.2941176 37.5463716,32.2941176" id="Fill-145-Copy-23" fill="#38363A"></path>
                        <path d="M37.5463716,41.8627451 L41.6547999,41.8627451 C42.5076473,41.8627451 43.2,42.6281625 43.2,43.5768123 L43.2,46.1251715 C43.2,47.0751208 42.5076473,47.8431373 41.6547999,47.8431373 L37.5463716,47.8431373 C36.6923527,47.8431373 36,47.0751208 36,46.1251715 L36,43.5768123 C36,42.6281625 36.6923527,41.8627451 37.5463716,41.8627451" id="Fill-145-Copy-34" fill="#38363A"></path>
                        <path d="M80.0547999,51.4313725 C80.9076473,51.4313725 81.6,52.19679 81.6,53.1454397 L81.6,55.6937989 C81.6,56.6437482 80.9076473,57.4117647 80.0547999,57.4117647 L37.5463716,57.4117647 C36.6923527,57.4117647 36,56.6437482 36,55.6937989 L36,53.1454397 C36,52.19679 36.6923527,51.4313725 37.5463716,51.4313725 L80.0547999,51.4313725 Z" id="Fill-145-Copy-45" fill="#38363A"></path>
                        <path d="M47.1463716,13.1568627 L51.2547999,13.1568627 C52.1076473,13.1568627 52.8,13.9222802 52.8,14.8709299 L52.8,17.4192891 C52.8,18.3692384 52.1076473,19.1372549 51.2547999,19.1372549 L47.1463716,19.1372549 C46.2923527,19.1372549 45.6,18.3692384 45.6,17.4192891 L45.6,14.8709299 C45.6,13.9222802 46.2923527,13.1568627 47.1463716,13.1568627" id="Fill-145-Copy-4" fill="#38363A"></path>
                        <path d="M47.1463716,22.7254902 L51.2547999,22.7254902 C52.1076473,22.7254902 52.8,23.4909076 52.8,24.4395574 L52.8,26.9879166 C52.8,27.9378659 52.1076473,28.7058824 51.2547999,28.7058824 L47.1463716,28.7058824 C46.2923527,28.7058824 45.6,27.9378659 45.6,26.9879166 L45.6,24.4395574 C45.6,23.4909076 46.2923527,22.7254902 47.1463716,22.7254902" id="Fill-145-Copy-13" fill="#38363A"></path>
                        <path d="M47.1463716,32.2941176 L51.2547999,32.2941176 C52.1076473,32.2941176 52.8,33.0595351 52.8,34.0081848 L52.8,36.556544 C52.8,37.5064933 52.1076473,38.2745098 51.2547999,38.2745098 L47.1463716,38.2745098 C46.2923527,38.2745098 45.6,37.5064933 45.6,36.556544 L45.6,34.0081848 C45.6,33.0595351 46.2923527,32.2941176 47.1463716,32.2941176" id="Fill-145-Copy-24" fill="#38363A"></path>
                        <path d="M47.1463716,41.8627451 L51.2547999,41.8627451 C52.1076473,41.8627451 52.8,42.6281625 52.8,43.5768123 L52.8,46.1251715 C52.8,47.0751208 52.1076473,47.8431373 51.2547999,47.8431373 L47.1463716,47.8431373 C46.2923527,47.8431373 45.6,47.0751208 45.6,46.1251715 L45.6,43.5768123 C45.6,42.6281625 46.2923527,41.8627451 47.1463716,41.8627451" id="Fill-145-Copy-35" fill="#38363A"></path>
                        <path d="M56.7463716,13.1568627 L60.8547999,13.1568627 C61.7076473,13.1568627 62.4,13.9222802 62.4,14.8709299 L62.4,17.4192891 C62.4,18.3692384 61.7076473,19.1372549 60.8547999,19.1372549 L56.7463716,19.1372549 C55.8923527,19.1372549 55.2,18.3692384 55.2,17.4192891 L55.2,14.8709299 C55.2,13.9222802 55.8923527,13.1568627 56.7463716,13.1568627" id="Fill-145-Copy-5" fill="#38363A"></path>
                        <path d="M56.7463716,22.7254902 L60.8547999,22.7254902 C61.7076473,22.7254902 62.4,23.4909076 62.4,24.4395574 L62.4,26.9879166 C62.4,27.9378659 61.7076473,28.7058824 60.8547999,28.7058824 L56.7463716,28.7058824 C55.8923527,28.7058824 55.2,27.9378659 55.2,26.9879166 L55.2,24.4395574 C55.2,23.4909076 55.8923527,22.7254902 56.7463716,22.7254902" id="Fill-145-Copy-14" fill="#38363A"></path>
                        <path d="M56.7463716,32.2941176 L60.8547999,32.2941176 C61.7076473,32.2941176 62.4,33.0595351 62.4,34.0081848 L62.4,36.556544 C62.4,37.5064933 61.7076473,38.2745098 60.8547999,38.2745098 L56.7463716,38.2745098 C55.8923527,38.2745098 55.2,37.5064933 55.2,36.556544 L55.2,34.0081848 C55.2,33.0595351 55.8923527,32.2941176 56.7463716,32.2941176" id="Fill-145-Copy-25" fill="#38363A"></path>
                        <path d="M56.7463716,41.8627451 L60.8547999,41.8627451 C61.7076473,41.8627451 62.4,42.6281625 62.4,43.5768123 L62.4,46.1251715 C62.4,47.0751208 61.7076473,47.8431373 60.8547999,47.8431373 L56.7463716,47.8431373 C55.8923527,47.8431373 55.2,47.0751208 55.2,46.1251715 L55.2,43.5768123 C55.2,42.6281625 55.8923527,41.8627451 56.7463716,41.8627451" id="Fill-145-Copy-36" fill="#38363A"></path>
                        <path d="M66.3463716,13.1568627 L70.4547999,13.1568627 C71.3076473,13.1568627 72,13.9222802 72,14.8709299 L72,17.4192891 C72,18.3692384 71.3076473,19.1372549 70.4547999,19.1372549 L66.3463716,19.1372549 C65.4923527,19.1372549 64.8,18.3692384 64.8,17.4192891 L64.8,14.8709299 C64.8,13.9222802 65.4923527,13.1568627 66.3463716,13.1568627" id="Fill-145-Copy-6" fill="#38363A"></path>
                        <path d="M66.3463716,22.7254902 L70.4547999,22.7254902 C71.3076473,22.7254902 72,23.4909076 72,24.4395574 L72,26.9879166 C72,27.9378659 71.3076473,28.7058824 70.4547999,28.7058824 L66.3463716,28.7058824 C65.4923527,28.7058824 64.8,27.9378659 64.8,26.9879166 L64.8,24.4395574 C64.8,23.4909076 65.4923527,22.7254902 66.3463716,22.7254902" id="Fill-145-Copy-15" fill="#38363A"></path>
                        <path d="M66.3463716,32.2941176 L70.4547999,32.2941176 C71.3076473,32.2941176 72,33.0595351 72,34.0081848 L72,36.556544 C72,37.5064933 71.3076473,38.2745098 70.4547999,38.2745098 L66.3463716,38.2745098 C65.4923527,38.2745098 64.8,37.5064933 64.8,36.556544 L64.8,34.0081848 C64.8,33.0595351 65.4923527,32.2941176 66.3463716,32.2941176" id="Fill-145-Copy-26" fill="#38363A"></path>
                        <path d="M66.3463716,41.8627451 L70.4547999,41.8627451 C71.3076473,41.8627451 72,42.6281625 72,43.5768123 L72,46.1251715 C72,47.0751208 71.3076473,47.8431373 70.4547999,47.8431373 L66.3463716,47.8431373 C65.4923527,47.8431373 64.8,47.0751208 64.8,46.1251715 L64.8,43.5768123 C64.8,42.6281625 65.4923527,41.8627451 66.3463716,41.8627451" id="Fill-145-Copy-37" fill="#38363A"></path>
                        <path d="M75.9463716,13.1568627 L80.0547999,13.1568627 C80.9076473,13.1568627 81.6,13.9222802 81.6,14.8709299 L81.6,17.4192891 C81.6,18.3692384 80.9076473,19.1372549 80.0547999,19.1372549 L75.9463716,19.1372549 C75.0923527,19.1372549 74.4,18.3692384 74.4,17.4192891 L74.4,14.8709299 C74.4,13.9222802 75.0923527,13.1568627 75.9463716,13.1568627" id="Fill-145-Copy-7" fill="#38363A"></path>
                        <path d="M75.9463716,22.7254902 L80.0547999,22.7254902 C80.9076473,22.7254902 81.6,23.4909076 81.6,24.4395574 L81.6,26.9879166 C81.6,27.9378659 80.9076473,28.7058824 80.0547999,28.7058824 L75.9463716,28.7058824 C75.0923527,28.7058824 74.4,27.9378659 74.4,26.9879166 L74.4,24.4395574 C74.4,23.4909076 75.0923527,22.7254902 75.9463716,22.7254902" id="Fill-145-Copy-16" fill="#38363A"></path>
                        <path d="M75.9463716,32.2941176 L80.0547999,32.2941176 C80.9076473,32.2941176 81.6,33.0595351 81.6,34.0081848 L81.6,36.556544 C81.6,37.5064933 80.9076473,38.2745098 80.0547999,38.2745098 L75.9463716,38.2745098 C75.0923527,38.2745098 74.4,37.5064933 74.4,36.556544 L74.4,34.0081848 C74.4,33.0595351 75.0923527,32.2941176 75.9463716,32.2941176" id="Fill-145-Copy-27" fill="#38363A"></path>
                        <path d="M75.9463716,41.8627451 L80.0547999,41.8627451 C80.9076473,41.8627451 81.6,42.6281625 81.6,43.5768123 L81.6,46.1251715 C81.6,47.0751208 80.9076473,47.8431373 80.0547999,47.8431373 L75.9463716,47.8431373 C75.0923527,47.8431373 74.4,47.0751208 74.4,46.1251715 L74.4,43.5768123 C74.4,42.6281625 75.0923527,41.8627451 75.9463716,41.8627451" id="Fill-145-Copy-38" fill="#38363A"></path>
                        <path d="M85.5463716,13.1568627 L89.6547999,13.1568627 C90.5076473,13.1568627 91.2,13.9222802 91.2,14.8709299 L91.2,17.4192891 C91.2,18.3692384 90.5076473,19.1372549 89.6547999,19.1372549 L85.5463716,19.1372549 C84.6923527,19.1372549 84,18.3692384 84,17.4192891 L84,14.8709299 C84,13.9222802 84.6923527,13.1568627 85.5463716,13.1568627" id="Fill-145-Copy-8" fill="#38363A"></path>
                        <path d="M85.5463716,22.7254902 L89.6547999,22.7254902 C90.5076473,22.7254902 91.2,23.4909076 91.2,24.4395574 L91.2,26.9879166 C91.2,27.9378659 90.5076473,28.7058824 89.6547999,28.7058824 L85.5463716,28.7058824 C84.6923527,28.7058824 84,27.9378659 84,26.9879166 L84,24.4395574 C84,23.4909076 84.6923527,22.7254902 85.5463716,22.7254902" id="Fill-145-Copy-17" fill="#38363A"></path>
                        <path d="M85.5463716,32.2941176 L89.6547999,32.2941176 C90.5076473,32.2941176 91.2,33.0595351 91.2,34.0081848 L91.2,36.556544 C91.2,37.5064933 90.5076473,38.2745098 89.6547999,38.2745098 L85.5463716,38.2745098 C84.6923527,38.2745098 84,37.5064933 84,36.556544 L84,34.0081848 C84,33.0595351 84.6923527,32.2941176 85.5463716,32.2941176" id="Fill-145-Copy-28" fill="#38363A"></path>
                        <path d="M85.5463716,41.8627451 L89.6547999,41.8627451 C90.5076473,41.8627451 91.2,42.6281625 91.2,43.5768123 L91.2,46.1251715 C91.2,47.0751208 90.5076473,47.8431373 89.6547999,47.8431373 L85.5463716,47.8431373 C84.6923527,47.8431373 84,47.0751208 84,46.1251715 L84,43.5768123 C84,42.6281625 84.6923527,41.8627451 85.5463716,41.8627451" id="Fill-145-Copy-39" fill="#38363A"></path>
                        <path d="M85.5463716,51.4313725 L89.6547999,51.4313725 C90.5076473,51.4313725 91.2,52.19679 91.2,53.1454397 L91.2,55.6937989 C91.2,56.6437482 90.5076473,57.4117647 89.6547999,57.4117647 L85.5463716,57.4117647 C84.6923527,57.4117647 84,56.6437482 84,55.6937989 L84,53.1454397 C84,52.19679 84.6923527,51.4313725 85.5463716,51.4313725" id="Fill-145-Copy-50" fill="#38363A"></path>
                        <path d="M95.1463716,22.7254902 L99.2547999,22.7254902 C100.107647,22.7254902 100.8,23.4909076 100.8,24.4395574 L100.8,26.9879166 C100.8,27.9378659 100.107647,28.7058824 99.2547999,28.7058824 L95.1463716,28.7058824 C94.2923527,28.7058824 93.6,27.9378659 93.6,26.9879166 L93.6,24.4395574 C93.6,23.4909076 94.2923527,22.7254902 95.1463716,22.7254902" id="Fill-145-Copy-18" fill="#38363A"></path>
                        <path d="M95.1463716,32.2941176 L99.2547999,32.2941176 C100.107647,32.2941176 100.8,33.0595351 100.8,34.0081848 L100.8,36.556544 C100.8,37.5064933 100.107647,38.2745098 99.2547999,38.2745098 L95.1463716,38.2745098 C94.2923527,38.2745098 93.6,37.5064933 93.6,36.556544 L93.6,34.0081848 C93.6,33.0595351 94.2923527,32.2941176 95.1463716,32.2941176" id="Fill-145-Copy-29" fill="#38363A"></path>
                        <path d="M95.1463716,41.8627451 L99.2547999,41.8627451 C100.107647,41.8627451 100.8,42.6281625 100.8,43.5768123 L100.8,46.1251715 C100.8,47.0751208 100.107647,47.8431373 99.2547999,47.8431373 L95.1463716,47.8431373 C94.2923527,47.8431373 93.6,47.0751208 93.6,46.1251715 L93.6,43.5768123 C93.6,42.6281625 94.2923527,41.8627451 95.1463716,41.8627451" id="Fill-145-Copy-40" fill="#38363A"></path>
                        <path d="M95.1463716,51.4313725 L99.2547999,51.4313725 C100.107647,51.4313725 100.8,52.19679 100.8,53.1454397 L100.8,55.6937989 C100.8,56.6437482 100.107647,57.4117647 99.2547999,57.4117647 L95.1463716,57.4117647 C94.2923527,57.4117647 93.6,56.6437482 93.6,55.6937989 L93.6,53.1454397 C93.6,52.19679 94.2923527,51.4313725 95.1463716,51.4313725" id="Fill-145-Copy-51" fill="#38363A"></path>
                        <path d="M104.746372,22.7254902 L108.8548,22.7254902 C109.707647,22.7254902 110.4,23.4909076 110.4,24.4395574 L110.4,26.9879166 C110.4,27.9378659 109.707647,28.7058824 108.8548,28.7058824 L104.746372,28.7058824 C103.892353,28.7058824 103.2,27.9378659 103.2,26.9879166 L103.2,24.4395574 C103.2,23.4909076 103.892353,22.7254902 104.746372,22.7254902" id="Fill-145-Copy-19" fill="#38363A"></path>
                        <path d="M104.746372,32.2941176 L108.8548,32.2941176 C109.707647,32.2941176 110.4,33.0595351 110.4,34.0081848 L110.4,36.556544 C110.4,37.5064933 109.707647,38.2745098 108.8548,38.2745098 L104.746372,38.2745098 C103.892353,38.2745098 103.2,37.5064933 103.2,36.556544 L103.2,34.0081848 C103.2,33.0595351 103.892353,32.2941176 104.746372,32.2941176" id="Fill-145-Copy-30" fill="#38363A"></path>
                        <path d="M104.746372,41.8627451 L108.8548,41.8627451 C109.707647,41.8627451 110.4,42.6281625 110.4,43.5768123 L110.4,46.1251715 C110.4,47.0751208 109.707647,47.8431373 108.8548,47.8431373 L104.746372,47.8431373 C103.892353,47.8431373 103.2,47.0751208 103.2,46.1251715 L103.2,43.5768123 C103.2,42.6281625 103.892353,41.8627451 104.746372,41.8627451" id="Fill-145-Copy-41" fill="#38363A"></path>
                        <path d="M104.746372,51.4313725 L108.8548,51.4313725 C109.707647,51.4313725 110.4,52.19679 110.4,53.1454397 L110.4,55.6937989 C110.4,56.6437482 109.707647,57.4117647 108.8548,57.4117647 L104.746372,57.4117647 C103.892353,57.4117647 103.2,56.6437482 103.2,55.6937989 L103.2,53.1454397 C103.2,52.19679 103.892353,51.4313725 104.746372,51.4313725" id="Fill-145-Copy-52" fill="#38363A"></path>
                        <path d="M95.2506933,13.1568627 L108.750559,13.1568627 C109.661071,13.1568627 110.4,13.9222802 110.4,14.8709299 L110.4,17.4192891 C110.4,18.3692384 109.661071,19.1372549 108.750559,19.1372549 L95.2506933,19.1372549 C94.3401819,19.1372549 93.6,18.3692384 93.6,17.4192891 L93.6,14.8709299 C93.6,13.9222802 94.3401819,13.1568627 95.2506933,13.1568627" id="Fill-155" fill="#38363A"></path>
                    </g>
                    <g id="Group" transform="translate(16.800000, 32.294118)">
                        <path d="M14.4005516,-2.97452694e-14 L14.5582892,0.00543708174 C15.8097301,0.0919789004 16.8,1.20076894 16.8,2.55163399 L16.8,2.55163399 L16.799,22.771 L17.999,22.771 L18,6.19090196 C18,4.81301961 18.9902699,3.68205377 20.2417108,3.59378112 L20.3994484,3.58823529 L20.5573132,3.59378112 C21.8097301,3.68205377 22.8,4.81301961 22.8,6.19090196 L22.8,6.19090196 L22.7989108,31.2247706 C22.991756,31.1092208 23.2102047,30.9104864 23.4286533,30.5732735 C24.0655363,29.5834648 25.9785796,24.9430585 25.9785796,24.9430585 C25.9785796,24.9430585 28.5249144,19.4659565 30.8809027,20.4521483 C33.2309052,21.4383401 32.1534715,25.0407132 32.1534715,25.0407132 C32.1534715,25.0407132 30.9551259,30.7239751 30.2895113,33.4329886 C29.4515074,36.8605478 27.4965639,40.3459763 25.8792162,42.9163443 C24.2618686,45.4806841 21.1732255,49.2277308 20.0945947,49.2277308 L19.8479821,53.8235294 L2.74073011,53.8235294 L2.74073011,50.5659618 C2.74073011,49.6750134 1.2,48.9323555 1.2,48.9323555 L1.22852053,48.7059775 C0.495079421,48.2569407 -5.32907052e-14,47.3995371 -5.32907052e-14,46.415884 L-5.32907052e-14,46.415884 L-5.32907052e-14,8.60251771 C-5.32907052e-14,7.1551623 1.07365517,5.98039216 2.40110345,5.98039216 L2.40110345,5.98039216 L2.55862812,5.98597331 C3.80848552,6.0748099 4.8,7.21305652 4.8,8.60251771 L4.8,8.60251771 L4.799,22.771 L5.999,22.771 L6,4.94165984 C6,3.58842963 6.9912866,2.48377948 8.24183277,2.39757264 L8.3994484,2.39215686 L8.55731319,2.39757264 C9.8097301,2.48377948 10.8,3.58842963 10.8,4.94165984 L10.8,4.94165984 L10.799,22.771 L11.999,22.771 L12,2.55163399 C12,1.20076894 12.9912866,0.0919789004 14.2428088,0.00543708174 L14.4005516,-2.97452694e-14 Z" id="Combined-Shape" fill="#E7E6E2"></path>
                        <polygon id="Fill-206" fill="#BDD1D0" points="0 72.9607843 24 72.9607843 24 53.8235294 0 53.8235294"></polygon>
                        <polygon id="Fill-207" fill="#6F9CAA" points="0 59.8039216 24 59.8039216 24 52.627451 0 52.627451"></polygon>
                        <path d="M2.4,56.2161731 C2.4,55.5550927 2.93821734,55.0196078 3.6014652,55.0196078 C4.26275946,55.0196078 4.8,55.5550927 4.8,56.2161731 C4.8,56.8762799 4.26275946,57.4127383 3.6014652,57.4127383 C2.93821734,57.4127383 2.4,56.8762799 2.4,56.2161731" id="Fill-208" fill="#38363A"></path>
                    </g>
                    <g id="Group-Copy" transform="translate(84.600000, 68.774510) scale(-1, 1) translate(-84.600000, -68.774510) translate(68.400000, 32.294118)">
                        <path d="M14.4005516,-2.97452694e-14 L14.5582892,0.00543708174 C15.8097301,0.0919789004 16.8,1.20076894 16.8,2.55163399 L16.8,2.55163399 L16.8,22.771 L18,22.771 L18,6.19090196 C18,4.81301961 18.9902699,3.68205377 20.2417108,3.59378112 L20.3994484,3.58823529 L20.5573132,3.59378112 C21.8097301,3.68205377 22.8,4.81301961 22.8,6.19090196 L22.8,6.19090196 L22.7999051,31.2241742 C22.9925067,31.1085375 23.21058,30.909907 23.4286533,30.5732735 C24.0655363,29.5834648 25.9785796,24.9430585 25.9785796,24.9430585 C25.9785796,24.9430585 28.5249144,19.4659565 30.8809027,20.4521483 C33.2309052,21.4383401 32.1534715,25.0407132 32.1534715,25.0407132 C32.1534715,25.0407132 30.9551259,30.7239751 30.2895113,33.4329886 C29.4515074,36.8605478 27.4965639,40.3459763 25.8792162,42.9163443 C24.2618686,45.4806841 21.1732255,49.2277308 20.0945947,49.2277308 L19.8479821,53.8235294 L2.74073011,53.8235294 L2.74073011,50.5659618 C2.74073011,49.6750134 1.2,48.9323555 1.2,48.9323555 L1.22852053,48.7059775 C0.495079421,48.2569407 -5.32907052e-14,47.3995371 -5.32907052e-14,46.415884 L-5.32907052e-14,46.415884 L-5.32907052e-14,8.60251771 C-5.32907052e-14,7.1551623 1.07365517,5.98039216 2.40110345,5.98039216 L2.40110345,5.98039216 L2.55862812,5.98597331 C3.80848552,6.0748099 4.8,7.21305652 4.8,8.60251771 L4.8,8.60251771 L4.8,22.771 L6,22.771 L6,4.94165984 C6,3.58842963 6.9912866,2.48377948 8.24183277,2.39757264 L8.3994484,2.39215686 L8.55731319,2.39757264 C9.8097301,2.48377948 10.8,3.58842963 10.8,4.94165984 L10.8,4.94165984 L10.8,22.771 L12,22.771 L12,2.55163399 C12,1.20076894 12.9912866,0.0919789004 14.2428088,0.00543708174 L14.4005516,-2.97452694e-14 Z" id="Combined-Shape" fill="#E7E6E2"></path>
                        <polygon id="Fill-206" fill="#BDD1D0" points="0 72.9607843 24 72.9607843 24 53.8235294 0 53.8235294"></polygon>
                        <polygon id="Fill-207" fill="#6F9CAA" points="0 59.8039216 24 59.8039216 24 52.627451 0 52.627451"></polygon>
                        <path d="M2.4,56.2161731 C2.4,55.5550927 2.93821734,55.0196078 3.6014652,55.0196078 C4.26275946,55.0196078 4.8,55.5550927 4.8,56.2161731 C4.8,56.8762799 4.26275946,57.4127383 3.6014652,57.4127383 C2.93821734,57.4127383 2.4,56.8762799 2.4,56.2161731" id="Fill-208" fill="#38363A"></path>
                    </g>
                </g>
            </g>
        </g>
    </g>
</svg>