<?xml version="1.0" encoding="UTF-8"?>
<svg width="120px" height="115px" viewBox="0 0 120 115" version="1.1" xmlns="http://www.w3.org/2000/svg" xmlns:xlink="http://www.w3.org/1999/xlink">
    <!-- Generator: Sketch 61.2 (89653) - https://sketch.com -->
    <title>Kunnskapsbanken</title>
    <desc>Created with Sketch.</desc>
    <g id="Bestille-tolketjeneste" stroke="none" stroke-width="1" fill="none" fill-rule="evenodd">
        <g id="Lenkepaneler-Copy-19" transform="translate(-915.000000, -413.000000)">
            <g id="Kunnskapsbanken" transform="translate(909.000000, 394.000000)">
                <g id="dokumenter/-informasjon" transform="translate(2.000000, 3.000000)">
                    <path d="M38,18.3424658 C19.3722899,18.3424658 4.22222222,33.5307635 4.22222222,52.2054795 C4.22222222,70.8801954 19.3722899,86.0684932 38,86.0684932 C56.6247729,86.0684932 71.7777778,70.8801954 71.7777778,52.2054795 C71.7777778,33.5307635 56.6247729,18.3424658 38,18.3424658 Z" id="Shape" fill="#669DB4"></path>
                    <path d="M28.1481481,73.369863 C26.5935689,73.369863 25.3333333,72.1064474 25.3333333,70.5479452 C25.3333333,68.989443 26.5935689,67.7260274 28.1481481,67.7260274 L35.1843333,67.7251781 L35.1843333,47.9721781 L30.962963,47.9726027 C29.4083837,47.9726027 28.1481481,46.7091871 28.1481481,45.1506849 C28.1481481,43.5921828 29.4083837,42.3287671 30.962963,42.3287671 L38,42.3287671 L38,42.3287671 C39.5545793,42.3287671 40.8148148,43.5921828 40.8148148,45.1506849 L40.8143333,67.7251781 L47.8518519,67.7260274 C49.4064311,67.7260274 50.6666667,68.989443 50.6666667,70.5479452 C50.6666667,72.1064474 49.4064311,73.369863 47.8518519,73.369863 L28.1481481,73.369863 Z M38,28.2191781 C40.3264444,28.2191781 42.2222222,30.1155068 42.2222222,32.4520548 C42.2222222,34.7928356 40.3264444,36.6849315 38,36.6849315 C35.6651111,36.6849315 33.7777778,34.7928356 33.7777778,32.4520548 C33.7777778,30.1155068 35.6651111,28.2191781 38,28.2191781 Z" id="Combined-Shape" fill="#FFFFFF"></path>
                </g>
                <g id="gjenstander/-ovenfra/-hånd/-søk" stroke-width="1">
                    <g id="Group" transform="translate(48.772727, 19.705882)">
                        <path d="M38.5533773,10.9589794 C44.8562206,19.8449593 42.7389864,32.1419969 33.8227996,38.423487 C24.90536,44.7049771 12.5677728,42.5936672 6.2649295,33.7076873 C-0.0391666225,24.8217074 2.08057317,12.5246698 10.99676,6.2431797 C19.9129468,-0.0383104054 32.250534,2.07299943 38.5533773,10.9589794 Z" id="Fill-95" fill="#B1CAC9" opacity="0.503185454"></path>
                        <path d="M58.6787545,72.7207077 C56.588205,74.1945647 53.7000145,73.697642 52.2233358,71.6136888 L36.4412512,49.3302192 C34.9645726,47.246266 35.4598399,44.3609925 37.549086,42.8871355 C39.6383322,41.4132784 42.5265228,41.9102011 44.0032014,43.9941543 L59.7865894,66.2776239 C61.2619647,68.3615771 60.7680007,71.2468506 58.6787545,72.7207077" id="Fill-97" fill="#C52C35"></path>
                        <path d="M11.274062,6.63462153 C2.58826442,12.7543065 0.517766634,24.7766662 6.6566804,33.4320813 C12.7955942,42.0874964 24.8583222,44.1510652 33.5441198,38.0326955 C42.2299174,31.9130105 44.3004152,19.8906508 38.1615014,11.2352357 C32.0225876,2.57982063 19.9598596,0.514936618 11.274062,6.63462153 M35.3480525,40.5763169 C25.2555305,47.686357 11.2397517,45.2900394 4.10319843,35.2299771 C-3.03071555,25.17123 -0.623712388,11.2023554 9.47012928,4.09100008 C19.5626513,-3.02035525 33.5784301,-0.622722409 40.7149834,9.43602469 C47.8488974,19.496087 45.4418942,33.4649616 35.3480525,40.5763169" id="Fill-99" fill="#2F3238"></path>
                        <path d="M40.5941558,46.4706913 C39.2200952,47.456726 37.7353893,47.7257633 36.7627398,46.3296426 L33.5141416,41.664588 C32.541492,40.2671612 32.8695682,38.3381898 34.2436288,37.3521551 C35.6189759,36.3661203 37.519245,36.6965399 38.4918946,38.0926607 L41.7404928,42.7577153 C42.7118558,44.153836 41.9682163,45.4846565 40.5941558,46.4706913" id="Fill-101" fill="#2F3238"></path>
                        <path d="M38.2272727,50.8379635 L53.7588066,72.8846252 C54.2724928,73.6141955 55.275404,73.7873833 56.0010877,73.2719111 C56.7281304,72.756439 56.8993591,71.750041 56.3856729,71.0204706 L41.5227465,49.9215686 C40.2901714,50.7615973 39.129621,50.9852413 38.2272727,50.8379635" id="Fill-103" fill="#D94C56"></path>
                        <path d="M53.3863636,44.6666667 C55.207181,44.6666667 56.6818182,45.9852269 56.6818182,47.6073503 L56.6818182,54.7905733 C56.6818182,53.5998954 58.0495568,52.6237874 59.7758069,52.5531164 L59.9765232,52.5490196 C61.7962557,52.5490196 63.2727273,53.5541001 63.2727273,54.7905733 L63.2727273,57.7984683 C63.2727273,56.399706 64.644226,55.2605002 66.3751757,55.1809125 L66.5689313,55.1764706 C68.3886638,55.1764706 69.8636364,56.3479 69.8636364,57.7984683 L69.8636364,60.2988395 C69.8636364,58.9735927 70.9548406,57.8902056 72.3321959,57.8088285 L72.4988006,57.8039216 C73.9573166,57.8039216 75.1363636,58.9205828 75.1363636,60.2988395 L75.1363636,86.8384154 C75.1363636,87.7645291 74.6040109,88.5725295 73.8122292,89.0029975 L73.8181818,89.0491745 C73.8181818,89.0491745 72.1243972,89.3333333 72.1243972,92.3242267 L72.1243972,92.3242267 L72.1243972,95.9019608 L53.3340549,95.9019608 L53.0634656,90.8543557 C51.8783367,90.8543557 48.4855637,86.7381929 46.7098218,83.9215952 C44.9327789,81.0984473 42.7849767,77.2704945 41.8639325,73.506734 C41.134122,70.5303107 39.8163003,64.2892542 39.8163003,64.2892542 C39.8163003,64.2892542 38.6324723,60.3316069 41.2147784,59.2481994 C43.8022882,58.1647918 46.6005453,64.1805205 46.6005453,64.1805205 C46.6005453,64.1805205 48.7015148,69.2765972 49.4014043,70.3639349 C49.6407605,70.734451 49.8801166,70.9529723 50.0914781,71.0801259 L50.0909091,47.6073503 C50.0909091,46.0411622 51.4656006,44.7579628 53.1992844,44.6713286 L53.3863636,44.6666667 Z" id="Combined-Shape" fill="#E7E6E2"></path>
                        <polygon id="Fill-115" fill="#BDD1D0" points="50.0909091 114.294118 76.4545455 114.294118 76.4545455 93.2745098 50.0909091 93.2745098"></polygon>
                        <polygon id="Fill-117" fill="#6E9DAA" points="50.0909091 101.156863 76.4545455 101.156863 76.4545455 93.2745098 50.0909091 93.2745098"></polygon>
                        <path d="M72.5,97.2156863 C72.5,96.4900698 71.9085966,95.9019608 71.1802255,95.9019608 C70.4529162,95.9019608 69.8636364,96.4900698 69.8636364,97.2156863 C69.8636364,97.940245 70.4529162,98.5294118 71.1802255,98.5294118 C71.9085966,98.5294118 72.5,97.940245 72.5,97.2156863" id="Fill-118" fill="#2F3237"></path>
                        <path d="" id="Path-10" stroke="#979797" fill-rule="nonzero"></path>
                    </g>
                </g>
            </g>
        </g>
    </g>
</svg>