<svg width="110" height="79" viewBox="0 0 110 79" fill="none" xmlns="http://www.w3.org/2000/svg">
<path fill-rule="evenodd" clip-rule="evenodd" d="M49.6296 8.71361C49.6296 7.33914 50.7416 6.22449 52.1111 6.22449C53.4806 6.22449 54.5926 7.33914 54.5926 8.71361C54.5926 10.0894 53.4806 11.2041 52.1111 11.2041C50.7416 11.2041 49.6296 10.0894 49.6296 8.71361ZM12.4074 8.71361C12.4074 7.33914 13.5183 6.22449 14.8882 6.22449C16.2594 6.22449 17.3704 7.33914 17.3704 8.71361C17.3704 10.0894 16.2594 11.2041 14.8882 11.2041C13.5183 11.2041 12.4074 10.0894 12.4074 8.71361ZM62.6455 0H4.35448C1.94938 0 0 1.93094 0 4.31208V16.1837H67V4.31208C67 2.52592 65.9031 0.992849 64.3406 0.33825C63.8198 0.120456 63.2462 0 62.6455 0Z" fill="#BA3A26"/>
<path fill-rule="evenodd" clip-rule="evenodd" d="M0.00122834 16.1836L0 30.2025V56.5643C0 59.0137 1.94938 60.9999 4.35448 60.9999H62.6455C65.0506 60.9999 66.9988 59.0137 66.9988 56.5643L67 38.608V16.1836H0.00122834Z" fill="#E7E9E9"/>
<path d="M13.6542 27.3882C12.965 27.3882 12.4062 26.8309 12.4062 26.1433C12.4062 25.4558 12.965 24.8984 13.6542 24.8984H53.3435C54.0327 24.8984 54.5914 25.4558 54.5914 26.1433C54.5914 26.8309 54.0327 27.3882 53.3435 27.3882H13.6542Z" fill="#78706A"/>
<path d="M13.6542 36.1031C12.965 36.1031 12.4062 35.5457 12.4062 34.8582C12.4062 34.1706 12.965 33.6133 13.6542 33.6133H53.3435C54.0327 33.6133 54.5914 34.1706 54.5914 34.8582C54.5914 35.5457 54.0327 36.1031 53.3435 36.1031H13.6542Z" fill="#78706A"/>
<path fill-rule="evenodd" clip-rule="evenodd" d="M35.9805 34.8573C35.9805 38.295 38.758 41.0818 42.1842 41.0818C45.6104 41.0818 48.3879 38.295 48.3879 34.8573C48.3879 31.4196 45.6104 28.6328 42.1842 28.6328C38.758 28.6328 35.9805 31.4196 35.9805 34.8573ZM45.9064 34.8573C45.9064 36.9199 44.2399 38.592 42.1842 38.592C40.1284 38.592 38.4619 36.9199 38.4619 34.8573C38.4619 32.7947 40.1284 31.1226 42.1842 31.1226C44.2399 31.1226 45.9064 32.7947 45.9064 34.8573Z" fill="#06893A"/>
<path d="M13.6542 44.816C12.965 44.816 12.4062 44.2586 12.4062 43.5711C12.4062 42.8835 12.965 42.3262 13.6542 42.3262H53.3435C54.0327 42.3262 54.5914 42.8835 54.5914 43.5711C54.5914 44.2586 54.0327 44.816 53.3435 44.816H13.6542Z" fill="#78706A"/>
<path d="M13.6542 53.5308C12.965 53.5308 12.4062 52.9735 12.4062 52.2859C12.4062 51.5984 12.965 51.041 13.6542 51.041H53.3435C54.0327 51.041 54.5914 51.5984 54.5914 52.2859C54.5914 52.9735 54.0327 53.5308 53.3435 53.5308H13.6542Z" fill="#78706A"/>
<path fill-rule="evenodd" clip-rule="evenodd" d="M72.9926 44.3813L73.0096 44.6813C73.0916 46.1013 74.3086 47.1873 75.7296 47.1053L84.9386 46.5773C86.3596 46.4953 87.4446 45.2783 87.3636 43.8583L87.3466 43.5583C87.2646 42.1373 86.0466 41.0513 84.6266 41.1333L75.4166 41.6613C73.9966 41.7433 72.9106 42.9613 72.9926 44.3813Z" fill="#E7E9E9"/>
<path fill-rule="evenodd" clip-rule="evenodd" d="M71.0786 40.4241L71.0956 40.7241C71.1776 42.1441 72.3946 43.2301 73.8146 43.1491L83.0246 42.6201C84.4446 42.5391 85.5306 41.3211 85.4496 39.9011L85.4316 39.6011C85.3496 38.1801 84.1326 37.0951 82.7126 37.1761L73.5026 37.7051C72.0826 37.7861 70.9966 39.0041 71.0786 40.4241Z" fill="#E7E9E9"/>
<path fill-rule="evenodd" clip-rule="evenodd" d="M68.723 36.5452L68.741 36.8452C68.822 38.2652 70.039 39.3512 71.46 39.2702L80.669 38.7412C82.09 38.6602 83.175 37.4422 83.094 36.0222L83.077 35.7222C82.995 34.3012 81.778 33.2162 80.357 33.2972L71.148 33.8262C69.727 33.9072 68.642 35.1252 68.723 36.5452Z" fill="#E7E9E9"/>
<path fill-rule="evenodd" clip-rule="evenodd" d="M70.1972 29.5166L70.1422 29.8116C69.8802 31.2106 70.8012 32.5566 72.1992 32.8186L81.2662 34.5176C82.6652 34.7796 84.0102 33.8586 84.2732 32.4596L84.3282 32.1646C84.5902 30.7666 83.6692 29.4206 82.2712 29.1586L73.2042 27.4586C71.8052 27.1966 70.4592 28.1186 70.1972 29.5166Z" fill="#E7E9E9"/>
<path fill-rule="evenodd" clip-rule="evenodd" d="M75.9194 36.3333L72.4564 31.1213L70.1484 29.8473L82.9834 29.4473C83.1804 29.4893 97.3484 39.7883 98.5404 41.8343C98.6684 42.0543 98.7444 42.3003 98.7624 42.5543L99.9544 58.7613L86.4184 63.4323C86.4184 63.4323 86.2314 62.3503 85.9784 61.1783C85.6544 59.6773 83.2574 52.9603 82.8884 51.0003C82.5204 49.0403 81.3244 46.4023 79.8864 44.9703C78.0054 43.0973 75.9194 36.3333 75.9194 36.3333Z" fill="#E7E9E9"/>
<path fill-rule="evenodd" clip-rule="evenodd" d="M87.5711 48.3922L87.8181 48.1442C88.9851 46.9722 88.9811 45.0752 87.8081 43.9072L75.7721 31.9222C74.5991 30.7542 72.7011 30.7582 71.5331 31.9312L71.2871 32.1792C70.1191 33.3512 70.1241 35.2492 71.2961 36.4162L83.3331 48.4012C84.5061 49.5692 86.4031 49.5652 87.5711 48.3922Z" fill="#E7E9E9"/>
<path fill-rule="evenodd" clip-rule="evenodd" d="M93.0037 40.9004L92.448 42.2759C92.1348 43.051 92.5868 43.9632 93.4565 44.3146L93.4961 44.3306C94.3666 44.6823 95.3246 44.3397 95.6377 43.5646L96.1935 42.1891C96.5063 41.4148 96.0555 40.5021 95.185 40.1504L95.1454 40.1344C94.2757 39.783 93.3166 40.1261 93.0037 40.9004Z" fill="#BA3A26"/>
<path fill-rule="evenodd" clip-rule="evenodd" d="M60.995 31.1988L56.843 27.0901L62.6839 27.0187L64.0664 27.5776L62.3777 31.7575L60.995 31.1988Z" fill="#FFE9CC"/>
<path fill-rule="evenodd" clip-rule="evenodd" d="M56.8434 27.0916L58.7199 27.0389L58.1569 28.4323L56.8434 27.0916Z" fill="#78706A"/>
<path fill-rule="evenodd" clip-rule="evenodd" d="M60.9687 30.6586C61.0751 30.3952 61.4116 30.3281 61.5533 29.9774C61.5762 29.9208 61.5871 29.8691 61.5916 29.8193L61.9211 29.9524L93.2449 42.608L92.682 44.0014L61.3581 31.3458L61.0506 31.2215C61.0506 31.2215 60.8626 30.9212 60.9687 30.6586Z" fill="#FFD399"/>
<path fill-rule="evenodd" clip-rule="evenodd" d="M62.2357 28.2858C62.3771 27.9358 62.1824 27.6521 62.2882 27.3901C62.3947 27.1266 62.7386 27.041 62.7386 27.041L63.0461 27.1653L94.3699 39.8209L93.807 41.2143L62.4831 28.5587L62.1536 28.4255C62.1847 28.3873 62.2128 28.3425 62.2357 28.2858Z" fill="#FFD399"/>
<path fill-rule="evenodd" clip-rule="evenodd" d="M61.6288 29.0225C61.7786 28.6517 62.0335 28.6415 62.1953 28.4414L62.525 28.5746L93.8074 41.2135L93.2445 42.6069L61.962 29.968L61.6323 29.8348C61.6549 29.5784 61.479 29.3932 61.6288 29.0225Z" fill="#D87F0A"/>
<rect width="4.50847" height="0.860058" transform="matrix(-0.374607 0.927184 0.927184 0.374607 94.3711 39.8203)" fill="#59514B"/>
<path d="M73.5212 32.9001C74.8881 31.5333 77.1041 31.5333 78.471 32.9001L87.6634 42.0925C89.0302 43.4593 89.0302 45.6754 87.6634 47.0423C86.2965 48.4091 84.0804 48.4091 82.7136 47.0423L73.5212 37.8499C72.1544 36.483 72.1544 34.267 73.5212 32.9001Z" fill="#E7E9E9"/>
<path fill-rule="evenodd" clip-rule="evenodd" d="M101.775 58.4238L84.0469 64.8177L88.7544 78.4238H109.047L101.775 58.4238Z" fill="#CCDEE6"/>
<path fill-rule="evenodd" clip-rule="evenodd" d="M102.023 57.4238L83.0469 63.8936L85.071 69.4238L104.047 62.954L102.023 57.4238Z" fill="#669DB4"/>
<path fill-rule="evenodd" clip-rule="evenodd" d="M100.989 61.0909C100.805 60.57 100.234 60.2972 99.7139 60.4813C99.1931 60.6646 98.9202 61.236 99.1043 61.7568C99.2876 62.2776 99.859 62.5505 100.38 62.3664C100.901 62.1822 101.174 61.6108 100.989 61.0909Z" fill="#3E3832"/>
</svg>
