<?xml version="1.0" encoding="UTF-8"?>
<svg width="55px" height="67px" viewBox="0 0 55 67" version="1.1" xmlns="http://www.w3.org/2000/svg" xmlns:xlink="http://www.w3.org/1999/xlink">
    <!-- Generator: Sketch 61.2 (89653) - https://sketch.com -->
    <title>Skjemaikon</title>
    <desc>Created with Sketch.</desc>
    <defs>
        <path d="M5.37037037,14.7714286 L5.37037037,59.1195272 C5.37037037,60.7102968 6.62112738,62 8.16464832,62 L45.5776707,62 C47.1196134,62 48.3703704,60.7102968 48.3703704,59.1195272 L48.3703704,7.8804728 C48.3703704,6.28970322 47.1196134,5 45.5776707,5 L15.7222222,5 L5.37037037,14.7714286 Z" id="path-1"></path>
    </defs>
    <g id="Bestille-tolketjeneste" stroke="none" stroke-width="1" fill="none" fill-rule="evenodd">
        <g id="Lenkepaneler-Copy-20" transform="translate(-1283.000000, -761.000000)">
            <g id="Skjemaikon" transform="translate(1283.000000, 761.000000)">
                <path d="M50.8603704,0 L3.87837037,0 C1.93937037,0 0.37037037,1.58686869 0.37037037,3.54747475 L0.37037037,63.4535354 C0.37037037,63.8191919 0.42537037,64.1747475 0.52737037,64.5060606 C0.69837037,65.0626263 1.00237037,65.5585859 1.40037037,65.9616162 C1.47737037,66.0383838 1.56137037,66.1181818 1.65037037,66.1888889 C2.16737037,66.6232323 2.81337037,66.9060606 3.51837037,66.9808081 C3.63837037,66.9929293 3.75837037,67 3.87837037,67 L50.8603704,67 C52.7993704,67 54.3703704,65.4111111 54.3703704,63.4535354 L54.3703704,3.54747475 C54.3703704,1.58686869 52.7993704,0 50.8603704,0" id="Fill-102" fill="#515658" fill-rule="evenodd"></path>
                <mask id="mask-2" fill="white">
                    <use xlink:href="#path-1"></use>
                </mask>
                <g id="Mask"></g>
                <rect id="Rectangle" fill="#FFFFFF" fill-rule="evenodd" mask="url(#mask-2)" x="-1" y="-3.14285714" width="54.9444444" height="72.4714286"></rect>
                <path d="M15.7222222,5 L15.7222222,11.8052367 C15.7222222,13.4437205 14.3907538,14.7714286 12.7476294,14.7714286 L5.37037037,14.7714286 L15.7222222,5 Z" id="Fill-59" fill="#C9C9C9" fill-rule="evenodd" mask="url(#mask-2)"></path>
                <g id="V⚙️/-dokumenter/-innhold/-oppgaver" mask="url(#mask-2)" fill-rule="evenodd" stroke-width="1">
                    <g transform="translate(6.962963, 13.142857)" id="Group">
                        <g transform="translate(7.166667, 8.957143)">
                            <polygon id="Fill-118" fill="#A59D96" points="6.37037037 4.88571429 24.6851852 4.88571429 24.6851852 3.25714286 6.37037037 3.25714286"></polygon>
                            <polygon id="Fill-119" fill="#A59D96" points="6.37037037 10.5857143 24.6851852 10.5857143 24.6851852 8.95714286 6.37037037 8.95714286"></polygon>
                            <polygon id="Fill-120" fill="#A59D96" points="6.37037037 15.4714286 24.6851852 15.4714286 24.6851852 13.8428571 6.37037037 13.8428571"></polygon>
                            <polygon id="Fill-121" fill="#A59D96" points="6.37037037 21.1714286 24.6851852 21.1714286 24.6851852 19.5428571 6.37037037 19.5428571"></polygon>
                            <path d="M4.77777778,1.63231714 L3.93513619,1.63231714 L1.63893788,1.63231714 L0.796296296,1.63231714 L0.796296296,2.52166371 L0.796296296,4.81439915 L0.796296296,5.70374571 L1.63893788,5.70374571 L3.93513619,5.70374571 L4.77777778,5.70374571 L4.77777778,4.81439915 L4.77777778,2.52166371 L4.77777778,1.63231714 Z M1.63893788,4.81439915 L3.93513619,4.81439915 L3.93513619,2.52166371 L1.63893788,2.52166371 L1.63893788,4.81439915 Z" id="Fill-122" fill="#A59D96"></path>
                            <path d="M4.77777778,7.19511 L3.93513619,7.19511 L1.63893788,7.19511 L0.796296296,7.19511 L0.796296296,8.08465087 L0.796296296,10.3769977 L0.796296296,11.2665386 L1.63893788,11.2665386 L3.93513619,11.2665386 L4.77777778,11.2665386 L4.77777778,10.3769977 L4.77777778,8.08465087 L4.77777778,7.19511 Z M1.63893788,10.3769977 L3.93513619,10.3769977 L3.93513619,8.08465087 L1.63893788,8.08465087 L1.63893788,10.3769977 Z" id="Fill-123" fill="#A59D96"></path>
                            <path d="M4.77777778,12.7579843 L3.93513619,12.7579843 L1.63893788,12.7579843 L0.796296296,12.7579843 L0.796296296,13.6477196 L0.796296296,15.9396776 L0.796296296,16.8294129 L1.63893788,16.8294129 L3.93513619,16.8294129 L4.77777778,16.8294129 L4.77777778,15.9396776 L4.77777778,13.6477196 L4.77777778,12.7579843 Z M1.63893788,15.9396776 L3.93513619,15.9396776 L3.93513619,13.6477196 L1.63893788,13.6477196 L1.63893788,15.9396776 Z" id="Fill-124" fill="#A59D96"></path>
                            <path d="M4.77777778,18.3215914 L3.93513619,18.3215914 L1.63893788,18.3215914 L0.796296296,18.3215914 L0.796296296,19.2111323 L0.796296296,21.5034791 L0.796296296,22.39302 L1.63893788,22.39302 L3.93513619,22.39302 L4.77777778,22.39302 L4.77777778,21.5034791 L4.77777778,19.2111323 L4.77777778,18.3215914 Z M1.63893788,21.5034791 L3.93513619,21.5034791 L3.93513619,19.2111323 L1.63893788,19.2111323 L1.63893788,21.5034791 Z" id="Fill-125" fill="#A59D96"></path>
                            <polygon id="Stroke-126" fill="#2F3237" fill-rule="nonzero" points="2.02510269 3.07037891 3.79430436 0 4.77777778 1.02410627 2.08345265 5.7 0 2.49830079 0.936316385 1.39721094"></polygon>
                            <polygon id="Stroke-127" fill="#2F3237" fill-rule="nonzero" points="3.59591402 4.88571429 4.77777778 5.77979131 2.10679254 10.5857143 0 7.22903882 1.1364565 6.25813084 2.03633551 7.69187513"></polygon>
                        </g>
                    </g>
                </g>
                <path d="M27.8718304,2.29215752 C27.2605674,2.29215752 26.7661062,1.78121844 26.7661062,1.14708852 C26.7661062,0.5129586 27.2605674,-0.00100976102 27.8718304,-0.00100976102 C28.4801734,-0.00100976102 28.9765813,0.5129586 28.9765813,1.14708852 C28.9765813,1.78121844 28.4801734,2.29215752 27.8718304,2.29215752 M34.6979254,-2.39616291 L30.5845535,-2.39616291 L30.5845535,-3.18478627 C30.5845535,-4.73981824 29.3688408,-6 27.8718304,-6 C26.3699532,-6 25.1571606,-4.73981824 25.1571606,-3.18478627 L25.1571606,-2.39616291 L21.0437887,-2.39616291 C19.0163032,-2.39616291 17.3703704,-0.688657018 17.3703704,1.41568495 L17.3703704,6 L38.3703704,6 L38.3703704,1.41568495 C38.3703704,-0.688657018 36.7254109,-2.39616291 34.6979254,-2.39616291" id="Fill-105" fill="#2F3237" fill-rule="evenodd" mask="url(#mask-2)"></path>
            </g>
        </g>
    </g>
</svg>