<svg id="FemaleCircleFilled" viewBox="0 0 53 53" fill="none"
    xmlns="http://www.w3.org/2000/svg">
    <circle cx="26.5" cy="26.5" r="26.5" fill="white" />
    <path
        d="M25.9776 15.875C24.9002 15.875 23.9576 15.4925 23.1945 14.7275C22.4314 13.9625 22.0499 13.04 22.0499 11.9375C22.0499 10.835 22.4314 9.9125 23.1945 9.1475C23.9576 8.3825 24.8778 8 25.9776 8C27.0773 8 27.9975 8.3825 28.7606 9.1475C29.5237 9.9125 29.9052 10.835 29.9052 11.9375C29.9052 13.04 29.5237 13.9625 28.7606 14.7275C27.9975 15.4925 27.0773 15.875 25.9776 15.875ZM21.4888 44V35H17L22.3416 20.645C22.6334 19.9025 23.1272 19.295 23.7781 18.8225C24.4289 18.35 25.1696 18.125 26 18.125C26.8304 18.125 27.5711 18.35 28.2219 18.8225C28.8728 19.295 29.3441 19.9025 29.6584 20.645L35 35H30.5112V44H21.4888Z"
        fill="#634689" />
</svg>