<svg id="MaleCircleFilled" viewBox="0 0 53 53" fill="none"
    xmlns="http://www.w3.org/2000/svg">
    <circle cx="26.5" cy="26.5" r="26.5" fill="white" />
    <path
        d="M27 15.6895C25.88 15.6895 24.9 15.3357 24.1067 14.6282C23.3133 13.9207 22.9167 13.0675 22.9167 12.0479C22.9167 11.0282 23.3133 10.175 24.1067 9.46752C24.9 8.76001 25.8567 8.40625 27 8.40625C28.1433 8.40625 29.1 8.76001 29.8933 9.46752C30.6867 10.175 31.0833 11.0282 31.0833 12.0479C31.0833 13.0675 30.6867 13.9207 29.8933 14.6282C29.1 15.3357 28.1433 15.6895 27 15.6895ZM22.3333 41.7009V31.2963H20V21.9322C20 20.7877 20.4667 19.8097 21.3767 18.9981C22.2867 18.1866 23.3833 17.7704 24.6667 17.7704H29.3333C30.6167 17.7704 31.7133 18.1866 32.6233 18.9981C33.5333 19.8097 34 20.7877 34 21.9322V31.2963H31.6667V41.7009H22.3333Z"
        fill="#0056B4" />
</svg>