<svg id="UnknownCircleFilled" viewBox="0 0 53 53" fill="none" xmlns="http://www.w3.org/2000/svg">
    <path
        d="M53 26.5C53 41.1355 41.1355 53 26.5 53C11.8645 53 0 41.1355 0 26.5C0 11.8645 11.8645 0 26.5 0C41.1355 0 53 11.8645 53 26.5Z"
        fill="white" />
    <path
        d="M29.69 35.0028V44.0028H22.79L23.62 32.7528H17L21.52 20.6528C21.81 19.9128 22.31 19.3028 22.96 18.8328C23.61 18.3628 24.35 18.1328 25.18 18.1328C26.01 18.1328 26.75 18.3628 27.4 18.8328C28.05 19.3028 28.52 19.9128 28.84 20.6528"
        fill="#6D5431" />
    <path
        d="M26.99 15.88C25.87 15.88 24.89 15.5 24.1 14.73C23.31 13.97 22.91 13.04 22.91 11.94C22.91 10.84 23.31 9.92 24.1 9.15C24.89 8.38 25.85 8 26.99 8C28.13 8 29.09 8.38 29.88 9.15C30.67 9.91 31.07 10.84 31.07 11.94C31.07 13.04 30.67 13.97 29.88 14.73C29.09 15.49 28.13 15.88 26.99 15.88ZM24.66 18.12H29.33C30.61 18.12 31.71 18.57 32.62 19.45C33.53 20.33 34 21.39 34 22.62V32.74H31.67V43.99H22.33V32.74H20"
        fill="#6D5431" />
</svg>